#!OML:ASF I:\golf\golf\golf 2\Subject 1\2002-09-07\Subject1.ASF
:FULLY-SPECIFIED
:DEGREES
543
root 0.385444 17.8172 -5.54974 5.33899 -1.49972 -8.49085
lowerback -6.42943 1.38329 -1.17506
upperback -2.17791 1.85037 3.92869
thorax 1.18697 0.941768 4.86117
lowerneck -24.3436 -3.29429 -0.982672
upperneck 24.6818 -4.72059 1.37574
head 12.2529 -2.00283 -0.138336
rclavicle -9.34909e-015 -6.88789e-014
rhumerus -29.1402 1.62617 -84.0923
rradius 36.9886
rwrist -10.379
rhand -18.3736 10.3402
rfingers 7.12502
rthumb 7.9098 -19.4918
lclavicle -9.34909e-015 -6.88789e-014
lhumerus -29.0345 20.2342 75.2494
lradius 24.0283
lwrist 2.24972
lhand -13.5525 28.0871
lfingers 7.12502
lthumb 12.5606 57.6895
rfemur -13.024 -1.53227 26.172
rtibia 30.2913
rfoot -15.8216 -8.13553
rtoes -2.27442
lfemur -13.2699 1.33162 -9.62976
ltibia 34.785
lfoot -20.1039 10.177
ltoes -9.72568
544
root 0.359778 17.8121 -5.54522 5.23509 -1.59361 -8.51603
lowerback -6.27443 1.3838 -1.1419
upperback -2.19262 1.85082 3.9305
thorax 1.08658 0.943726 4.8386
lowerneck -24.4191 -3.2179 -0.895479
upperneck 24.755 -4.66707 1.43829
head 12.2954 -1.96007 -0.121515
rclavicle 2.00213e-014 5.66536e-015
rhumerus -29.213 1.73547 -84.2792
rradius 37.1193
rwrist -10.5431
rhand -18.5813 10.4756
rfingers 7.12502
rthumb 7.70933 -19.3638
lclavicle 2.00213e-014 5.66536e-015
lhumerus -29.0658 20.3858 75.2923
lradius 24.1994
lwrist 2.19254
lhand -13.4695 28.3893
lfingers 7.12502
lthumb 12.6406 57.9868
rfemur -12.9166 -1.45946 26.2811
rtibia 30.3487
rfoot -15.91 -8.11868
rtoes -2.33047
lfemur -13.0906 1.30413 -9.51262
ltibia 34.776
lfoot -20.1525 10.1957
ltoes -9.40493
545
root 0.334251 17.8102 -5.54124 5.24856 -1.68537 -8.42797
lowerback -6.37009 1.37814 -1.29129
upperback -2.12189 1.84938 3.94796
thorax 1.20733 0.940436 4.9466
lowerneck -24.6607 -3.1796 -0.817605
upperneck 24.8097 -4.63525 1.41122
head 12.3606 -1.93884 -0.143256
rclavicle 1.60146e-014 1.36167e-014
rhumerus -29.0374 1.82551 -84.3505
rradius 37.1423
rwrist -10.6616
rhand -18.654 10.6391
rfingers 7.12502
rthumb 7.63913 -19.2029
lclavicle 1.60146e-014 1.36167e-014
lhumerus -28.9168 20.5788 75.4737
lradius 24.3837
lwrist 2.2417
lhand -13.2494 28.7663
lfingers 7.12502
lthumb 12.8528 58.3505
rfemur -12.9564 -1.48223 26.2631
rtibia 30.4181
rfoot -16.0129 -8.03121
rtoes -2.41394
lfemur -13.05 1.22745 -9.53798
ltibia 34.7582
lfoot -20.1763 10.2644
ltoes -8.73413
546
root 0.310575 17.8108 -5.53638 5.33242 -1.76645 -8.28196
lowerback -6.60771 1.36611 -1.50015
upperback -2.07415 1.84337 3.9651
thorax 1.38183 0.934022 5.09247
lowerneck -24.6958 -3.18031 -0.783241
upperneck 24.7769 -4.6482 1.41009
head 12.3537 -1.94147 -0.151895
rclavicle -8.14085e-015 -4.36332e-014
rhumerus -28.9353 1.84646 -84.3735
rradius 37.1357
rwrist -10.6474
rhand -18.6578 10.7342
rfingers 7.12502
rthumb 7.63543 -19.108
lclavicle -8.14085e-015 -4.36332e-014
lhumerus -28.8141 20.9139 75.5926
lradius 24.479
lwrist 2.13966
lhand -12.8345 28.8138
lfingers 7.12502
lthumb 13.2528 58.3725
rfemur -13.0777 -1.50795 26.1883
rtibia 30.5024
rfoot -16.0331 -8.01999
rtoes -2.74724
lfemur -13.107 1.17076 -9.63507
ltibia 34.7225
lfoot -20.1031 10.3952
ltoes -8.58587
547
root 0.287237 17.809 -5.53175 5.36177 -1.85588 -8.24164
lowerback -6.67044 1.37131 -1.50475
upperback -2.09631 1.85105 3.94457
thorax 1.39362 0.937893 5.07579
lowerneck -24.6094 -3.18455 -0.789533
upperneck 24.7507 -4.69277 1.54527
head 12.3317 -1.94413 -0.105955
rclavicle -1.2424e-016 -1.88845e-015
rhumerus -28.9552 1.72938 -84.4829
rradius 37.1037
rwrist -10.5533
rhand -18.5811 10.6029
rfingers 7.12502
rthumb 7.70945 -19.2365
lclavicle -1.2424e-016 -1.88845e-015
lhumerus -28.848 21.234 75.5677
lradius 24.5807
lwrist 2.06388
lhand -12.1833 28.535
lfingers 7.12502
lthumb 13.8804 58.0518
rfemur -13.133 -1.44221 26.2299
rtibia 30.5927
rfoot -16.0606 -8.05031
rtoes -2.76332
lfemur -13.1054 1.24731 -9.60512
ltibia 34.6771
lfoot -20.0101 10.4959
ltoes -9.09299
548
root 0.262087 17.8056 -5.52621 5.35087 -2.03713 -8.25176
lowerback -6.60648 1.40105 -1.41586
upperback -2.14218 1.88728 3.88725
thorax 1.31217 0.957804 4.96432
lowerneck -24.5785 -3.15949 -0.705237
upperneck 24.7976 -4.72487 1.65138
head 12.346 -1.93494 -0.0852332
rclavicle 6.768e-015 -1.69961e-014
rhumerus -28.9919 1.51222 -84.6722
rradius 36.9746
rwrist -10.372
rhand -18.5642 10.4872
rfingers 7.12502
rthumb 7.72582 -19.3517
lclavicle 6.768e-015 -1.69961e-014
lhumerus -28.9366 21.5248 75.4295
lradius 24.7023
lwrist 2.1661
lhand -11.826 28.5025
lfingers 7.12502
lthumb 14.2247 57.9954
rfemur -13.1232 -1.32367 26.3179
rtibia 30.6549
rfoot -16.1694 -7.98216
rtoes -2.48726
lfemur -13.0091 1.35256 -9.51832
ltibia 34.6516
lfoot -19.9707 10.602
ltoes -9.26668
